<svg id="Group_8125" data-name="Group 8125" xmlns="http://www.w3.org/2000/svg" width="232.176" height="192.9" viewBox="0 0 232.176 192.9">
  <ellipse id="Ellipse_3605" data-name="Ellipse 3605" cx="41.098" cy="41.098" rx="41.098" ry="41.098" transform="translate(74.99 3.912)" fill="#f8f8f8"/>
  <path id="Path_8780" data-name="Path 8780" d="M352.268,157.366a7.474,7.474,0,0,0-14.713-1.7c-5.08,19.877-23.307,17.2-48.053,21.954a56.068,56.068,0,0,1,.543,33.112c11.976,14.305,13.3,26.947,17.872,47.4.095-.669.172-1.349.211-2.053,12.24-2.42,13.639-16.931,12.9-29.37,28.431-5.32,31.816-40.574,31.24-69.339Z" transform="translate(-120.149 -150.041)" fill="#f8f8f8"/>
  <path id="Path_8781" data-name="Path 8781" d="M-11.712,177.618c-24.648-4.731-42.97-2.061-48.053-21.954a7.472,7.472,0,0,0-8.1-5.573,7.473,7.473,0,0,0-6.614,7.275c-.576,28.767,2.809,64.021,31.24,69.34-.74,12.446.663,26.949,12.9,29.37.039.7.116,1.384.211,2.052,4.555-20.383,5.9-33.093,17.872-47.4a56.062,56.062,0,0,1,.544-33.112Z" transform="translate(74.534 -150.041)" fill="#f8f8f8"/>
  <path id="Path_8782" data-name="Path 8782" d="M150.419,313.756a56.018,56.018,0,0,1-93.133,0c-5.6,9.162-5.634,13.289-14,50.727a54.193,54.193,0,0,0,52.889,66.011H111.53a54.193,54.193,0,0,0,52.889-66.011c-8.425-37.7-8.451-41.644-14-50.727Z" transform="translate(12.235 -237.594)" fill="#f8f8f8"/>
</svg>
