<svg id="Group_8123" data-name="Group 8123" xmlns="http://www.w3.org/2000/svg" width="211.632" height="215.671" viewBox="0 0 211.632 215.671">
  <path id="Path_8682" data-name="Path 8682" d="M646.533,310.991A83.856,83.856,0,0,0,538.5,377.744c6.978-23.8,35.785-28.5,63.2-17.147,23.384,9.686,45.753,31.127,52.7,60.271q19.97-41.823,18.238-95.8a253.874,253.874,0,0,0-26.1-14.081" transform="translate(-461.135 -292.448)" fill="#fff"/>
  <path id="Path_8683" data-name="Path 8683" d="M432.345,292.307a83.86,83.86,0,0,0,67.6,105.2c-23.8-6.978-28.5-35.785-17.147-63.2,10.362-25.019,34.183-48.874,66.492-53.925a175.952,175.952,0,0,0-41.013-4.958q-37.855.049-75.928,16.883" transform="translate(-402.456 -275.424)" fill="#fff" fill-rule="evenodd"/>
  <path id="Path_8684" data-name="Path 8684" d="M387.924,350.582a83.707,83.707,0,0,1,1.269-26.3q-8.888,4.551-17.786,10.022-2.67,85.031,48.492,139.925c.431.013.863.027,1.3.036a83.8,83.8,0,0,0,84.348-70.624c-6.978,23.8-35.786,28.5-63.2,17.147-25.967-10.756-50.684-36-54.42-70.2" transform="translate(-371.274 -301.676)" fill="#fff"/>
  <path id="Path_8685" data-name="Path 8685" d="M501.118,533.923c-.637.069-1.27.129-1.9.185A232.573,232.573,0,0,0,545.842,566.8q52.54-28.422,78.883-71.51A83.811,83.811,0,0,0,554.172,416.3c23.8,6.978,28.5,35.785,17.147,63.2-10.756,25.967-36.005,50.685-70.2,54.42" transform="translate(-440.025 -351.129)" fill="#fff" fill-rule="evenodd"/>
  <path id="Path_8686" data-name="Path 8686" d="M552.822,286.14,435.881,298.066l44.557,69.343a73.623,73.623,0,0,1,5.891-27.344c10.363-25.018,34.183-48.874,66.492-53.924" transform="translate(-405.992 -281.182)" fill="#fff" fill-rule="evenodd"/>
  <path id="Path_8687" data-name="Path 8687" d="M458.246,550.357l57.7-48.315c-10.961,1.9-23.906.077-36.555-5.162a92.843,92.843,0,0,1-39.172-30.993Z" transform="translate(-408.325 -377.773)" fill="#fff"/>
  <path id="Path_8688" data-name="Path 8688" d="M609.534,507.959a92.144,92.144,0,0,1-39.207,44.429l92.612-28.643L614.27,469.258c2.548,11.4.849,25.216-4.736,38.7" transform="translate(-478.239 -379.584)" fill="#fff" fill-rule="evenodd"/>
  <path id="Path_8689" data-name="Path 8689" d="M662.918,381.467c23.384,9.687,45.753,31.128,52.7,60.272l18.238-95.8-81.428,31.974a82.214,82.214,0,0,1,10.49,3.55" transform="translate(-522.357 -313.319)" fill="#fff"/>
</svg>
