<svg xmlns="http://www.w3.org/2000/svg" width="94" height="94" viewBox="0 0 94 94">
  <g id="Group_8130" data-name="Group 8130" transform="translate(-2017 -992)">
    <g id="Ellipse_3789" data-name="Ellipse 3789" transform="translate(2017 992)" fill="#ff0" stroke="#707070" stroke-width="1">
      <circle cx="47" cy="47" r="47" stroke="none"/>
      <circle cx="47" cy="47" r="46.5" fill="none"/>
    </g>
    <path id="Path_8787" data-name="Path 8787" d="M234.149,208.8l-15.924-9.555a1.547,1.547,0,0,0-2.343,1.326V219.68a1.547,1.547,0,0,0,2.343,1.326l15.924-9.555a1.547,1.547,0,0,0,0-2.652Zm-15.173,8.149V203.3l11.371,6.823Z" transform="translate(1841.31 828.46)" fill="#59268c"/>
    <path id="Path_8786" data-name="Path 8786" d="M169.994,159.2c-.057-.433-.605-4.278-2.387-6.235a8.181,8.181,0,0,0-5.715-2.762c-.1-.01-.195-.02-.279-.03l-.069-.007c-7.03-.551-17.643-.557-17.75-.557h-.024c-.106,0-10.719.006-17.748.557l-.069.007c-.084.01-.177.02-.279.03a8.181,8.181,0,0,0-5.715,2.761c-1.78,1.956-2.331,5.8-2.387,6.234l0,.026a89.108,89.108,0,0,0-.514,8.971v4.121a89.078,89.078,0,0,0,.514,8.973l0,.025c.057.433.606,4.277,2.388,6.231a8.729,8.729,0,0,0,5.808,2.713c.236.031.44.057.579.085.047.009.1.017.143.022,4.055.42,16.738.549,17.294.554.107,0,10.728-.026,17.757-.57l.077-.008c.086-.011.183-.021.288-.032a8.2,8.2,0,0,0,5.7-2.763c1.781-1.954,2.331-5.8,2.387-6.229l0-.026a89.169,89.169,0,0,0,.514-8.973V168.2a89.118,89.118,0,0,0-.514-8.973Zm-2.543,13.12c0,4.138-.463,8.341-.493,8.6-.115.859-.649,3.487-1.606,4.531l-.017.019a5.208,5.208,0,0,1-3.745,1.76c-.115.012-.221.024-.318.036-6.914.533-17.387.558-17.474.558-.13,0-12.938-.132-16.93-.532-.221-.041-.459-.072-.709-.1a5.785,5.785,0,0,1-3.929-1.719l-.017-.019c-.851-.928-1.435-3.267-1.606-4.531-.03-.27-.493-4.468-.493-8.6V168.2c0-4.138.463-8.342.493-8.6.115-.86.649-3.49,1.607-4.537l.016-.017a5.192,5.192,0,0,1,3.752-1.758c.111-.011.214-.022.308-.033,6.911-.539,17.374-.545,17.479-.545h.024c.105,0,10.569.006,17.481.545.094.011.2.022.308.033a5.189,5.189,0,0,1,3.752,1.757l.016.018c.851.93,1.436,3.27,1.607,4.537.03.269.493,4.469.493,8.6Z" transform="translate(1920.33 868.321)" fill="#59268c"/>
  </g>
</svg>
