<svg id="Group_2006" data-name="Group 2006" xmlns="http://www.w3.org/2000/svg" width="231.543" height="186.195" viewBox="0 0 231.543 186.195">
  <path id="Path_1588" data-name="Path 1588" d="M178.656,40.836l55.59,92.485-10.3-.061c.329.546,11.873,19.9,11.873,19.9l36.125-.086L180.085,0c-1.81,2.895-125.1,185.99-125.1,185.99l200.545.205-82.1-137.581C175.682,45.173,178.9,40.244,178.656,40.836ZM96.612,162.961s39.549-58.666,63.672-94.776l56.573,94.28Z" transform="translate(-40.398)" fill="#fff"/>
  <path id="Path_1590" data-name="Path 1590" d="M185.022,133.567l-119.673.266,63.331-94.163,4.965,8.25,12.8-19.031L129.841.338,26,153.807,196.93,153.4Z" transform="translate(-26.003 -0.168)" fill="#fff"/>
</svg>
