<svg id="Group_8121" data-name="Group 8121" xmlns="http://www.w3.org/2000/svg" width="261.752" height="195.939" viewBox="0 0 261.752 195.939">
  <g id="Group_8120" data-name="Group 8120" transform="translate(0 0.125)">
    <path id="Path_8674" data-name="Path 8674" d="M294.112,319.149a2.273,2.273,0,0,1-1.661-.72l-128.6-136.842a2.28,2.28,0,0,1,.05-3.174L218.3,124a2.278,2.278,0,0,1,1.612-.669H368.316a2.28,2.28,0,0,1,1.612.669l54.393,54.41a2.28,2.28,0,0,1,.048,3.174l-128.6,136.842A2.273,2.273,0,0,1,294.112,319.149ZM168.7,180.076,294.112,313.537l125.42-133.461L367.371,127.9H220.856Z" transform="translate(-163.238 -123.335)" fill="#fff"/>
  </g>
  <path id="Path_8675" data-name="Path 8675" d="M256.588,223.44a2.276,2.276,0,0,1-1.612-.667l-72.929-72.929a2.281,2.281,0,0,1,3.226-3.226L258.2,219.546a2.281,2.281,0,0,1-1.614,3.894Z" transform="translate(-155.675 -113.782)" fill="#fff"/>
  <path id="Path_8676" data-name="Path 8676" d="M278.889,202.883h0a2.28,2.28,0,0,1-1.612-.669l-74.983-74.985A2.28,2.28,0,1,1,205.519,124l73.37,73.372,72.591-72.591a2.281,2.281,0,0,1,3.226,3.226l-74.2,74.2A2.281,2.281,0,0,1,278.889,202.883Z" transform="translate(-147.233 -123.21)" fill="#fff"/>
  <path id="Path_8677" data-name="Path 8677" d="M232.511,134.852,265.8,168.137,298.734,135.2Z" transform="translate(-134.355 -118.409)" fill="#fff"/>
  <path id="Path_8678" data-name="Path 8678" d="M217.192,236.977a2.281,2.281,0,0,1-1.612-3.894l56.157-56.159a2.281,2.281,0,0,1,3.226,3.225l-56.157,56.16A2.279,2.279,0,0,1,217.192,236.977Z" transform="translate(-141.693 -101.146)" fill="#fff"/>
  <path id="Path_8679" data-name="Path 8679" d="M236.647,278.8a2.282,2.282,0,0,1-1.614-3.9L365.988,143.947a2.281,2.281,0,0,1,3.226,3.226L238.259,278.129A2.269,2.269,0,0,1,236.647,278.8Z" transform="translate(-133.583 -114.895)" fill="#fff"/>
  <path id="Path_8680" data-name="Path 8680" d="M247.509,186.047a2.282,2.282,0,0,1-1.612-3.9l57.213-57.213a2.281,2.281,0,0,1,3.226,3.226l-57.213,57.213A2.274,2.274,0,0,1,247.509,186.047Z" transform="translate(-129.053 -122.82)" fill="#fff"/>
  <path id="Path_8681" data-name="Path 8681" d="M269.416,173.133a2.278,2.278,0,0,1-1.614-.669L222.48,127.141a2.281,2.281,0,0,1,3.225-3.226l45.323,45.323a2.282,2.282,0,0,1-1.612,3.9Z" transform="translate(-138.816 -123.247)" fill="#fff"/>
</svg>
